# xmcd
#
# Track frame offsets:
#	187
#	19110
#	36415
#	51640
#	70320
#	92902
#	110667
#	131660
#	148405
#	168957
#	189020
#	207550
#	232107
#
# Disc length: 3380 seconds
#
# Revision: 1
# Processed by: cddbd v1.5.1PL0 Copyright (c) Steve Scherf et al.
# Submitted via: CDex 1.50Beta5
#
DISCID=cb0d320d
DTITLE=カルテット・グルーブ - 夜空のシンフォニー〜クラシックで聴くSMAP・ソング〜
DYEAR=1998
DGENRE=
TTITLE0=$10
TTITLE1=がんばりましょう
TTITLE2=君と僕の6カ月
TTITLE3=SHAKE
TTITLE4=どんないいこと
TTITLE5=Don’t Cry Baby
TTITLE6=突然の夏
TTITLE7=オリジナル・スマイル
TTITLE8=君色想い
TTITLE9=青いイナズマ
TTITLE10=セロリ
TTITLE11=はじめての夏
TTITLE12=夜空ノムコウ
EXTD=
EXTT0=
EXTT1=
EXTT2=
EXTT3=
EXTT4=
EXTT5=
EXTT6=
EXTT7=
EXTT8=
EXTT9=
EXTT10=
EXTT11=
EXTT12=
PLAYORDER=
